<?xml version="1.0" encoding="utf-8"?>
<!-- Generator: Adobe Illustrator 16.0.0, SVG Export Plug-In . SVG Version: 6.00 Build 0)  -->
<!DOCTYPE svg PUBLIC "-//W3C//DTD SVG 1.1//EN" "http://www.w3.org/Graphics/SVG/1.1/DTD/svg11.dtd">
<svg version="1.1" xmlns="http://www.w3.org/2000/svg" xmlns:xlink="http://www.w3.org/1999/xlink" x="0px" y="0px" width="640px"
	 height="480px" viewBox="0 0 640 480" enable-background="new 0 0 640 480" xml:space="preserve">
<g id="bg_x5F_C">
	<circle fill="#FFFFFF" stroke="#000000" stroke-miterlimit="10" cx="326.5" cy="211.5" r="164.5"/>
	<circle fill="#FFFFFF" stroke="#000000" stroke-miterlimit="10" cx="326.5" cy="211.5" r="139.825"/>
	<line fill="none" stroke="#000000" stroke-miterlimit="10" x1="187" y1="211.5" x2="466" y2="211.5"/>
	<line fill="none" stroke="#000000" stroke-miterlimit="10" x1="227.858" y1="310.142" x2="425.142" y2="112.859"/>
	<line fill="none" stroke="#000000" stroke-miterlimit="10" x1="326.5" y1="351" x2="326.5" y2="72"/>
	<line fill="none" stroke="#000000" stroke-miterlimit="10" x1="425.142" y1="310.142" x2="227.858" y2="112.859"/>
	
		<rect x="194.501" y="338.5" transform="matrix(0.1737 -0.9848 0.9848 0.1737 -94.7448 577.0862)" fill="none" stroke="#000000" stroke-miterlimit="10" width="204" height="12.999"/>
	
		<rect x="254.501" y="338.5" transform="matrix(-0.1737 -0.9848 0.9848 -0.1737 78.6498 755.9938)" fill="none" stroke="#000000" stroke-miterlimit="10" width="204" height="12.999"/>
</g>
<g id="center_x5F_C">
	<circle fill="#FFFFFF" stroke="#000000" stroke-miterlimit="10" cx="326.5" cy="211.5" r="37.752"/>
	<circle fill="#FFFFFF" stroke="#000000" stroke-miterlimit="10" cx="326.5" cy="211.5" r="30.202"/>
</g>
<g id="s_x5F_8">
	<circle fill="#FFFFFF" stroke="#000000" stroke-miterlimit="10" cx="326.381" cy="42.619" r="17.381"/>
	<circle fill="#FFFFFF" stroke="#000000" stroke-miterlimit="10" cx="210.381" cy="95.619" r="17.381"/>
	<circle fill="#FFFFFF" stroke="#000000" stroke-miterlimit="10" cx="162.381" cy="211.619" r="17.381"/>
	<circle fill="#FFFFFF" stroke="#000000" stroke-miterlimit="10" cx="210.381" cy="327.619" r="17.381"/>
	<circle fill="#FFFFFF" stroke="#000000" stroke-miterlimit="10" cx="326.381" cy="375.619" r="17.381"/>
	<circle fill="#FFFFFF" stroke="#000000" stroke-miterlimit="10" cx="443.381" cy="95.619" r="17.381"/>
	<circle fill="#FFFFFF" stroke="#000000" stroke-miterlimit="10" cx="491.381" cy="211.619" r="17.381"/>
	<circle fill="#FFFFFF" stroke="#000000" stroke-miterlimit="10" cx="443.381" cy="327.619" r="17.381"/>
</g>
</svg>
