<?xml version="1.0" encoding="utf-8"?>
<!-- Generator: Adobe Illustrator 16.0.0, SVG Export Plug-In . SVG Version: 6.00 Build 0)  -->
<!DOCTYPE svg PUBLIC "-//W3C//DTD SVG 1.1//EN" "http://www.w3.org/Graphics/SVG/1.1/DTD/svg11.dtd">
<svg version="1.1" id="圖層_1" xmlns="http://www.w3.org/2000/svg" xmlns:xlink="http://www.w3.org/1999/xlink" x="0px" y="0px"
	 width="1024px" height="768px" viewBox="0 0 1024 768" enable-background="new 0 0 1024 768" xml:space="preserve">
<path fill="#99C6E4" d="M804,516.829C804,630.705,711.811,724,597.473,724H321.176C206.838,724,114,630.705,114,516.829V241.652
	C114,127.777,206.838,36,321.176,36h276.297C711.811,36,804,127.777,804,241.652V516.829z"/>
<rect x="224.07" y="603.504" fill="none" width="297.656" height="71.048"/>
<text transform="matrix(1 0 0 1 224.0693 643.0762)" fill="#FFFFFF" stroke="#FFFFFF" stroke-miterlimit="10" font-family="'ComicSansMS'" font-size="45">Life is art.</text>
<g>
	<g>
		<g id="XMLID_1_">
			<g>
				<path fill="#333333" d="M495.359,464.354c0.14,0.061,0.95,0.341,2.05,0.69c-76.93,5.88-100.41-92.01-100.41-154.54
					c0-96.93,78.57-175.5,175.5-175.5c96.93,0,175.5,78.57,175.5,175.5c0,69.9-32,163-100.011,158.48l-3-0.181h-0.01l-3.55-0.21
					c30.94-16.88,54.94-44.87,66.67-78.6c6.58-1.53,11.021-4.43,11.021-7.76c0-2.57-2.65-4.88-6.881-6.5
					c2.46-10.51,3.761-21.47,3.761-32.73c0-18.05-3.341-35.31-9.45-51.21l-33.33,0.55l-16.89-18.49l-14.811,19.02l-203.71,3.4
					c-5.06,14.64-7.81,30.37-7.81,46.73c0,11.93,1.46,23.52,4.22,34.6c-4.43,1.63-7.22,4-7.22,6.63c0,3.44,4.74,6.42,11.67,7.9
					c10.03,27.44,28.23,50.94,51.66,67.57c2.96,2.1,6.01,4.09,9.14,5.97c-0.73-0.22-1.44-0.439-2.06-0.63
					c0.03-0.01,0.06-0.01,0.09-0.01C496.119,464.575,495.479,464.375,495.359,464.354z"/>
				<path fill="#FFF5D6" d="M706.549,291.795c6.109,15.9,9.45,33.16,9.45,51.21c0,11.26-1.301,22.22-3.761,32.73
					c-3.85-1.47-9-2.38-14.68-2.38c-11.91,0-21.56,3.98-21.56,8.88c0,4.91,9.649,8.89,21.56,8.89c3.83,0,7.43-0.41,10.54-1.13
					c-11.729,33.729-35.729,61.72-66.67,78.6l-151.1-8.89c-23.43-16.63-41.63-40.13-51.66-67.57c2.96,0.641,6.32,0.99,9.89,0.99
					c11.91,0,21.56-3.98,21.56-8.89c0-4.9-9.65-8.88-21.56-8.88c-5.51,0-10.53,0.86-14.34,2.25c-2.76-11.08-4.22-22.67-4.22-34.6
					c0-16.36,2.75-32.09,7.81-46.73l203.71-3.4l14.811-19.02l16.89,18.49L706.549,291.795z M659.999,344.005c0-4.97-4.03-9-9-9
					c-4.971,0-9,4.03-9,9c0,4.97,4.029,9,9,9C655.969,353.005,659.999,348.975,659.999,344.005z M502.999,344.005c0-4.97-4.03-9-9-9
					c-4.97,0-9,4.03-9,9c0,4.97,4.03,9,9,9C498.969,353.005,502.999,348.975,502.999,344.005z"/>
				<path fill="#FFCCCC" d="M712.238,375.735c4.23,1.62,6.881,3.93,6.881,6.5c0,3.331-4.44,6.23-11.021,7.76
					C709.719,385.345,711.099,380.585,712.238,375.735z"/>
				<path fill="#FFCCCC" d="M712.238,375.735c-1.14,4.85-2.52,9.61-4.14,14.26c-3.11,0.72-6.71,1.13-10.54,1.13
					c-11.91,0-21.56-3.98-21.56-8.89c0-4.9,9.649-8.88,21.56-8.88C703.238,373.355,708.389,374.265,712.238,375.735z"/>
				<circle cx="650.999" cy="344.005" r="9"/>
				<polygon fill="#3366FF" points="624.408,568.005 534.999,568.005 520.999,568.005 521.999,561.005 637.488,561.005 
					637.999,561.005 641.999,568.005 				"/>
				<path fill="#FFF5D6" d="M540.999,482.415c-4.45-1.021-8.82-2.25-13.101-3.67c-10.01-3.32-19.54-7.73-28.43-13.07
					c-3.13-1.88-6.18-3.87-9.14-5.97l151.1,8.89c-1.33,0.73-2.68,1.44-4.04,2.13c-4.85,2.45-9.86,4.63-15.01,6.521
					c-5.32,1.96-10.79,3.609-16.38,4.93c-10.591,2.51-21.641,3.83-33,3.83C561.999,486.005,551.289,484.765,540.999,482.415z"/>
				<path fill="#FFFF66" d="M622.759,524.115l14.729,36.89H521.999l8.55-35.36l10.45-43.229c10.29,2.35,21,3.59,32,3.59
					c11.359,0,22.409-1.32,33-3.83L622.759,524.115z M585.369,524.775l9.31-9.07l-12.87-1.87l-5.75-11.66l-5.76,11.66l-12.86,1.87
					l9.311,9.07l-2.2,12.819l11.51-6.05l11.5,6.05L585.369,524.775z"/>
				<path fill="#FFF5D6" d="M622.919,478.705c12.229,12.479,35.59,47.13-0.16,45.41l-16.76-41.94c5.59-1.32,11.06-2.97,16.38-4.93
					L622.919,478.705z"/>
				<path fill="#FFF5D6" d="M620.999,600.005c0,9,7,38-7,39c-15,1-12-31-12-40h19V600.005z"/>
				<polygon fill="#3366FF" points="594.679,515.705 585.369,524.775 587.559,537.595 576.059,531.545 564.549,537.595 
					566.749,524.775 557.438,515.705 570.299,513.835 576.059,502.175 581.809,513.835 				"/>
				<path fill="#FFF5D6" d="M540.999,482.415l-10.45,43.229l-0.61-0.149c-40.48,3.03-15.2-33.66-2.04-46.75
					C532.179,480.165,536.549,481.395,540.999,482.415z"/>
				<circle cx="493.999" cy="344.005" r="9"/>
				<path fill="#333333" d="M497.499,465.035c-0.03,0-0.06,0-0.09,0.01c-1.1-0.35-1.91-0.63-2.05-0.69
					C495.479,464.375,496.119,464.575,497.499,465.035z"/>
				<path fill="#FFCCCC" d="M448.559,375.355c11.91,0,21.56,3.98,21.56,8.88c0,4.91-9.65,8.89-21.56,8.89
					c-3.57,0-6.93-0.35-9.89-0.99c-1.74-4.729-3.23-9.58-4.45-14.53C438.029,376.215,443.049,375.355,448.559,375.355z"/>
				<path fill="#FFCCCC" d="M434.219,377.605c1.22,4.95,2.71,9.8,4.45,14.53c-6.93-1.479-11.67-4.46-11.67-7.9
					C426.999,381.605,429.789,379.235,434.219,377.605z"/>
			</g>
			<g>
				<circle fill="none" stroke="#000000" stroke-width="3" stroke-miterlimit="10" cx="493.999" cy="344.005" r="9"/>
				<circle fill="none" stroke="#000000" stroke-width="3" stroke-miterlimit="10" cx="650.999" cy="344.005" r="9"/>
				<path fill="none" stroke="#000000" stroke-miterlimit="10" d="M644.979,468.805c-2.51,0.641-4.93,1.49-7.59,1.92
					c-1.08,0.181-2.2,0.28-3.39,0.28"/>
			</g>
		</g>
		<g>
			<path fill="#FFFFFF" stroke="#000000" stroke-width="0.5" stroke-miterlimit="10" d="M526.365,420.35c0,0,34.146,20.74,93.902,0
				c0,0,14.635,7.5,0,17.771c0,0-45.121,33.632-93.902,0C526.365,438.12,512.951,428.896,526.365,420.35z"/>
			
				<line fill="#FFFFFF" stroke="#000000" stroke-width="0.5" stroke-miterlimit="10" x1="546.13" y1="427.235" x2="534.873" y2="443.34"/>
			
				<line fill="#FFFFFF" stroke="#000000" stroke-width="0.5" stroke-miterlimit="10" x1="560.365" y1="429.235" x2="555.263" y2="451.127"/>
			
				<line fill="#FFFFFF" stroke="#000000" stroke-width="0.5" stroke-miterlimit="10" x1="578.598" y1="429.235" x2="584.902" y2="451.127"/>
			
				<line fill="#FFFFFF" stroke="#000000" stroke-width="0.5" stroke-miterlimit="10" x1="594.357" y1="427.235" x2="604.414" y2="443.34"/>
		</g>
	</g>
	<g>
		<path fill="#C3E2FF" d="M530.397,577.17c0,0-0.018,42.837,7.514,62.599c7.525,19.752,27.718,5.867,27.718,5.867l13.703-49.213
			l18.155,51.942c0,0,17.421,11.645,25.424-1.12c7.998-12.755-3.11-70.636-3.11-70.636L530.397,577.17z"/>
		<path fill="#DA7D81" d="M529.807,504.794c0,0-40.6,75.671-5.984,84.617c0,0,75.563,41.255,113.153,3.74
			c17.073-17.039-12.996-94.558-15.973-95.151L529.807,504.794z"/>
		<g>
			<path fill="#FFFFFF" d="M523.368,472.801c0,0,64.141,30.274,110.27-4.856c46.124-35.127-32.193,76.547-100.342,32.717
				C465.157,456.829,523.368,472.801,523.368,472.801z"/>
			<path fill="#FFFFFF" d="M541.277,548.988c1.05,23.825,7.123,42.915,13.563,42.632c6.439-0.283,10.809-19.834,9.759-43.659
				c-1.05-23.828-7.12-42.919-13.56-42.635C544.6,505.609,540.228,525.159,541.277,548.988z"/>
			<path fill="#FFFFFF" d="M562.331,548.259c11.058,16.836,24.385,27.62,29.775,24.084c5.39-3.539,0.793-20.056-10.266-36.897
				c-11.052-16.834-24.38-27.615-29.767-24.08C546.686,514.9,551.279,531.422,562.331,548.259z"/>
		</g>
	</g>
</g>
<g>
	<path fill="#FFFFFF" d="M220.009,523.715c-0.918-0.116-1.778-0.517-2.582-1.207c-1.149-1.663-1.666-3.583-1.548-5.766
		l-16.783,0.518l-1.721-0.861c-0.805-0.916-1.149-2.008-1.033-3.271l0.86-1.721l1.721-0.861l16.61-0.517l-0.517-3.097l0.861-1.722
		c0.916-0.688,2.007-0.976,3.27-0.86l1.721,0.86c0.917,1.377,1.377,2.982,1.377,4.818l18.245-0.172
		c-0.229-1.949,0.115-3.671,1.033-5.162c0.803-0.688,1.836-0.976,3.099-0.862l1.721,0.862c0.917,1.377,1.205,2.981,0.861,4.818
		h15.06c1.377-0.114,2.582,0.229,3.615,1.032c0.688,0.805,0.976,1.839,0.86,3.099l-0.86,1.721c-1.149,0.805-2.526,1.149-4.13,1.033
		l-14.717-0.173c0.115,1.952-0.229,3.731-1.032,5.337c-0.805,0.746-1.837,1.063-3.098,0.945l-1.721-0.945
		c-0.805-1.033-1.09-2.697-0.861-4.992l-17.729,0.172c0.688,1.606,0.975,2.983,0.861,4.131l-0.861,1.808
		C221.786,523.255,220.926,523.599,220.009,523.715z M233.09,583.698l-1.722-0.86c-1.032-0.918-1.434-2.124-1.205-3.615v-12.909
		c-5.508,3.787-9.84,7.028-12.995,9.726c-3.155,2.696-6.657,4.733-10.5,6.109l-1.721-0.86c-0.688-0.805-0.977-1.836-0.86-3.098
		l0.86-1.721c3.615-2.524,7.172-5.064,10.672-7.617c3.498-2.552,6.97-5.494,10.413-8.821l-23.495,0.517
		c-0.917-0.115-1.721-0.459-2.409-1.033c-0.688-0.804-0.977-1.836-0.86-3.098l0.86-1.722c1.261-0.802,2.754-1.147,4.475-1.032
		l24.528-0.344c-0.23-1.722,0.115-3.214,1.032-4.477c0.803-0.688,1.836-0.974,3.098-0.86l1.722,0.86
		c0.803,1.263,1.088,2.755,0.86,4.477l25.044,0.86c1.147,0,2.18,0.344,3.098,1.031c0.688,0.919,0.975,2.011,0.86,3.271l-0.86,1.722
		c-1.033,0.805-2.237,1.09-3.615,0.859l-19.708-1.032c4.131,2.983,8.477,5.522,13.038,7.617c4.562,2.095,8.85,4.574,12.866,7.444
		c0.689,0.803,0.976,1.834,0.861,3.098l-0.861,1.721c-0.918,0.688-2.009,0.976-3.271,0.861c-4.247-2.755-8.648-5.192-13.21-7.315
		c-4.562-2.121-8.965-4.59-13.21-7.401l0.172,15.061l-0.861,1.722C235.384,583.525,234.351,583.813,233.09,583.698z
		 M211.059,533.869c-0.917-0.115-1.751-0.46-2.496-1.033c-0.688-0.803-0.977-1.836-0.86-3.097l0.86-1.723
		c7.285-1.377,14.63-2.323,22.032-2.84c7.401-0.517,14.831-1.003,22.29-1.462l1.807,0.86c0.688,0.805,0.975,1.837,0.86,3.097
		l-0.86,1.721c-7.173,1.15-14.429,1.951-21.773,2.411C225.573,532.265,218.288,532.953,211.059,533.869z M214.845,547.466
		c-0.918-0.113-1.721-0.457-2.409-1.031c-0.689-1.378-1.349-2.725-1.979-4.046c-0.633-1.318-0.947-2.782-0.947-4.389l0.86-1.723
		c0.917-0.688,2.008-0.974,3.271-0.86l1.721,0.86c0.572,1.379,1.175,2.726,1.807,4.046c0.631,1.321,1.003,2.783,1.119,4.39
		l-0.86,1.722C216.623,547.009,215.762,547.353,214.845,547.466z M230.853,546.262c-0.918-0.115-1.721-0.46-2.41-1.033
		c-0.689-1.376-1.235-2.81-1.635-4.303c-0.402-1.492-0.719-3.041-0.947-4.648l0.86-1.721c0.804-0.688,1.836-0.975,3.099-0.86
		l1.721,0.86c0.803,1.377,1.377,2.812,1.721,4.304c0.345,1.493,0.688,3.042,1.033,4.647l-0.861,1.721
		C232.63,545.802,231.77,546.146,230.853,546.262z M247.377,546.949l-1.722-0.86c-0.688-0.915-0.977-2.008-0.86-3.27
		c0.458-1.722,1.061-3.356,1.807-4.904c0.745-1.551,1.519-3.069,2.324-4.563c0.917-0.804,2.008-1.147,3.271-1.032l1.808,0.86
		c0.803,0.919,1.147,2.01,1.033,3.27c-0.805,1.607-1.564,3.215-2.281,4.82c-0.719,1.606-1.478,3.213-2.281,4.818
		C249.67,546.778,248.637,547.066,247.377,546.949z"/>
	<path fill="#FFFFFF" d="M305.67,550.268c-3.844-2.41-6.513-4.188-8.004-5.335c-0.689-0.805-0.977-1.838-0.861-3.1l0.861-1.721
		c0.803-0.688,1.836-0.975,3.099-0.86c1.604,0.917,3.184,1.894,4.733,2.926c0.459-2.638,0.745-5.134,0.861-7.487
		c0.114-2.353,0.287-4.906,0.516-7.66h-44.838c-2.467-0.114-3.787-1.147-3.958-3.097c-0.172-1.95-0.402-9.367-0.688-22.247
		c-0.289-12.88-0.289-19.722,0-20.526c0.287-0.802,1.376-1.376,3.271-1.721l14.286-0.171c2.065-3.903,3.498-6.484,4.303-7.747
		c0.917-0.803,2.065-1.146,3.442-1.032l1.721,0.86c0.689,0.805,0.976,1.838,0.861,3.099l-2.582,4.647
		c10.787-0.229,16.838-0.186,18.159,0.128c1.319,0.316,1.922,1.249,1.808,2.798c-0.574,13.598-0.99,21.214-1.248,22.85
		c-0.258,1.635-1.334,2.424-3.228,2.365l-33.908-0.171l0.172,3.613l44.321-0.516l1.894,1.033c0.688,0.917,0.975,2.01,0.86,3.271
		l-0.86,1.721c-2.066,1.032-4.419,1.435-7.058,1.205h-38.813l0.172,2.926h46.215c1.836-0.399,2.81,0.015,2.926,1.249
		c0.115,1.234,0,3.413-0.344,6.539c-0.344,3.129-0.66,6.541-0.947,10.242c-0.288,3.7-0.89,6.769-1.807,9.208
		C310.088,549.995,308.307,550.897,305.67,550.268z M263.586,545.706c-0.918-0.116-1.721-0.46-2.41-1.032
		c-0.688-1.722-1.148-3.499-1.376-5.336c-0.23-1.836-0.603-3.671-1.12-5.508l0.947-1.807c0.917-0.689,2.008-0.977,3.271-0.861
		l1.721,0.861c0.803,1.665,1.377,3.413,1.721,5.25c0.344,1.837,0.573,3.729,0.688,5.679l-0.86,1.722
		C265.363,545.246,264.503,545.59,263.586,545.706z M295.945,489.509v-3.528l-32.187,0.173l0.172,3.355H295.945z M295.084,500.524
		l0.517-4.304h-31.67v4.132L295.084,500.524z M277.7,543.813c-0.918-0.116-1.721-0.461-2.41-1.032
		c-0.688-1.492-1.262-3.013-1.721-4.563c-0.46-1.548-0.746-3.184-0.86-4.905l0.86-1.807c0.804-0.688,1.836-0.976,3.098-0.86
		l1.722,0.86c0.688,1.548,1.26,3.128,1.721,4.732c0.459,1.607,0.804,3.215,1.033,4.82l-0.86,1.722
		C279.477,543.353,278.616,543.697,277.7,543.813z M291.47,542.607l-1.721-0.86c-0.574-1.49-1.176-2.981-1.808-4.474
		c-0.632-1.493-1.119-3.042-1.463-4.648l0.86-1.807c0.804-0.688,1.836-0.976,3.099-0.86l1.721,0.86
		c1.148,1.665,1.979,3.214,2.496,4.646c0.517,1.435,0.774,2.957,0.774,4.562l-0.86,1.721
		C293.763,542.436,292.73,542.723,291.47,542.607z"/>
	<path fill="#FFFFFF" d="M332.326,533.152l-1.721-0.86c-1.377-1.604-1.951-3.497-1.721-5.679l-14.2,0.171l-1.721-0.861
		c-0.688-0.916-0.977-2.007-0.861-3.27l0.861-1.721c1.033-0.688,2.18-1.033,3.442-1.033h11.618l-0.172-2.41
		c0.115-0.916,0.459-1.721,1.033-2.408c0.917-0.689,2.008-0.977,3.27-0.86l1.722,0.86c0.688,0.805,0.975,2.408,0.86,4.818
		l23.925,0.345c0.228-1.949,0.744-3.787,1.549-5.509c0.804-0.688,1.836-0.975,3.098-0.86l1.722,0.86
		c0.803,1.15,1.088,2.469,0.86,3.959l-0.344,1.55h13.856l1.721,0.86c0.803,0.918,1.147,2.01,1.033,3.271l-0.861,1.722l-1.721,0.86
		h-15.405c-0.229,1.492-0.747,2.869-1.549,4.13c-0.805,0.689-1.837,0.978-3.098,0.86l-1.722-0.86
		c-0.805-0.916-1.032-2.353-0.688-4.303l-21.515-0.171l0.689,3.957l-0.861,1.722C334.619,533.038,333.586,533.325,332.326,533.152z
		 M317.61,592.879c-0.918-0.117-1.722-0.461-2.41-1.032c-0.688-0.806-0.977-1.837-0.86-3.099l0.86-1.721
		c1.949-0.805,4.044-1.177,6.283-1.119c2.237,0.056,9.467-0.144,21.687-0.603v-3.959h-2.754l-9.983,0.517l-1.722-0.86
		c-0.688-0.916-0.977-2.009-0.86-3.271l0.86-1.808c2.18-0.803,4.562-1.175,7.143-1.119c2.582,0.057,5.078-0.027,7.488-0.258v-2.408
		c-8.492,0.344-13.784,0.645-15.878,0.902c-2.095,0.258-3.371-0.4-3.83-1.979c-0.46-1.578-0.805-3.658-1.033-6.239
		c-0.229-2.582-0.331-5.208-0.301-7.876c0.029-2.666,0.615-4.014,1.765-4.044c1.147-0.029,7.573-0.101,19.277-0.215l0.172-2.927
		l-24.7-0.173c-0.917-0.113-1.721-0.458-2.41-1.032c-0.688-0.803-0.977-1.836-0.86-3.098l0.86-1.722l1.721-0.86l25.388-0.173
		l0.172-2.581c-3.671,0.344-6.54,0.461-8.606,0.344c-0.918-0.114-1.721-0.458-2.409-1.032c-0.689-0.804-0.977-1.836-0.861-3.099
		l0.861-1.721c4.13-0.572,8.29-1.076,12.478-1.507c4.187-0.43,8.463-0.645,12.824-0.645l1.721,0.946
		c0.688,0.806,0.975,1.837,0.86,3.099l-0.86,1.722c-1.262,0.804-2.726,1.147-4.389,1.032c-1.665-0.115-3.301-0.057-4.906,0.172
		l-0.172,3.614l22.634-0.688l1.721,0.86c0.689,0.805,0.976,1.838,0.861,3.1l-0.861,1.721c-1.493,0.918-3.156,1.32-4.992,1.204
		l-19.363,0.517l-0.172,2.582L369.762,552c2.238,0.058,3.271,1.206,3.099,3.442v13.77c-0.116,2.468-1.635,3.501-4.561,3.099
		l-18.245-0.171v2.408c2.754,0.23,5.564,0.344,8.434,0.344c2.869,0,5.623,0.345,8.263,1.033c0.688,0.977,0.975,2.096,0.86,3.357
		l-0.86,1.721c-2.41,0.918-5.108,1.204-8.09,0.86l-8.778-0.517v3.959h26.077l1.893,1.032c0.688,0.804,0.975,1.837,0.861,3.098
		l-0.861,1.723c-0.805,0.572-1.665,0.916-2.582,1.032L317.61,592.879z M343.342,560.091v-2.41h-14.458l0.172,2.41H343.342z
		 M343.342,567.146v-2.064h-13.426l0.345,2.754L343.342,567.146z M366.062,559.574v-2.411l-16.007,0.174v2.408L366.062,559.574z
		 M366.062,567.146v-2.581l-16.007,0.173v2.408H366.062z"/>
	<path fill="#FFFFFF" d="M404.124,589.723l-2.328-0.658c-2.584-6.261-4.51-12.332-5.776-18.218
		c-1.268-5.886-4.302-18.759-9.106-38.612l-6.104,15.361c-0.944,1.21-2.211,1.89-3.794,2.045l-2.326-0.659
		c-1.039-0.831-1.638-2.037-1.791-3.622c2.65-8.431,5.932-16.557,9.836-24.384c3.905-7.822,7.338-15.905,10.302-24.248
		c0.943-1.207,2.21-1.89,3.794-2.044l2.327,0.658c1.039,0.832,1.636,2.04,1.79,3.623c-1.486,4.538-2.827,8.281-4.028,11.224
		c-1.201,2.944-2.474,5.902-3.816,8.871l15.302,66.546l-0.658,2.328C406.914,588.974,405.707,589.569,404.124,589.723z
		 M445.686,581.376c-2.063-0.047-4.031-0.555-5.903-1.52c-1.874-0.964-3.778-1.923-5.721-2.873
		c-1.038-0.832-1.636-2.037-1.789-3.624l0.658-2.325c0.83-1.039,2.037-1.636,3.623-1.79c2.367,0.87,4.748,1.813,7.142,2.824
		c0.377-4.182,0.222-8.463-0.462-12.846c-0.687-4.382-1.502-9.053-2.445-14.011l-23.594,5.591c-1.16,0.073-2.232-0.162-3.217-0.71
		c-1.039-0.83-1.637-2.037-1.791-3.623l0.658-2.327c3.751-1.886,7.78-3.275,12.086-4.169c4.304-0.89,8.571-1.813,12.793-2.765
		c-1.417-2.813-2.618-4.692-3.606-5.644c-0.989-0.948-3.181-1.871-6.58-2.766c-1.981-1.531-2.359-3.516-1.132-5.95
		c2.292-3.367,4.043-6.894,5.253-10.574c1.208-3.68,2.744-7.566,4.606-11.664c-6.916,1.464-11.59,2.535-14.027,3.22
		c-2.441,0.684-4.946,1.198-7.524,1.54c-1.158,0.075-2.231-0.162-3.215-0.708c-1.039-0.83-1.638-2.038-1.79-3.623l0.658-2.325
		c3.971-1.488,8.132-2.76,12.484-3.806c4.351-1.049,11.647-2.621,21.889-4.716c3.811-0.797,5.197,0.701,4.156,4.493
		c-3.341,6.358-5.821,11.548-7.442,15.559c-1.621,4.015-3.188,8.222-4.7,12.618c2.556,1.862,4.543,3.832,5.968,5.909
		c1.422,2.08,2.645,4.27,3.671,6.566l14.3-2.94c2.009-0.232,3.89-0.005,5.635,0.689c1.039,0.832,1.636,2.04,1.79,3.623l-0.657,2.326
		c-0.972,1.065-2.166,1.731-3.582,2.001l-14.741,2.365c0.997,3.7,1.717,7.286,2.158,10.763c0.442,3.478,0.873,7.392,1.299,11.751
		c0.427,4.361-0.194,7.943-1.861,10.756C449.068,579.482,447.385,581.053,445.686,581.376z"/>
</g>
</svg>
