<?xml version="1.0" standalone="no"?>
<!DOCTYPE svg PUBLIC "-//W3C//DTD SVG 20010904//EN"
 "http://www.w3.org/TR/2001/REC-SVG-20010904/DTD/svg10.dtd">
<svg version="1.0" xmlns="http://www.w3.org/2000/svg"
 width="600.000000pt" height="600.000000pt" viewBox="0 0 600.000000 600.000000"
 preserveAspectRatio="xMidYMid meet">

<g transform="translate(0.000000,600.000000) scale(0.100000,-0.100000)"
fill="#000000" stroke="none">
<path d="M2855 5253 c-252 -22 -555 -108 -785 -223 -644 -322 -1085 -913
-1211 -1625 -27 -152 -37 -456 -20 -606 76 -665 416 -1233 964 -1610 66 -46
74 -49 134 -49 l64 0 -73 59 c-226 183 -409 421 -528 689 -47 105 -48 106 -92
119 -55 16 -98 54 -98 87 0 28 18 50 62 72 18 10 28 21 24 30 -3 7 -13 53 -23
101 -14 70 -18 136 -18 328 1 255 9 319 65 509 l22 74 147 6 c80 3 637 13
1236 21 600 9 1118 18 1152 21 l62 5 91 119 91 118 110 -119 110 -118 211 2
211 2 28 -84 c36 -107 64 -238 80 -371 14 -128 7 -381 -15 -500 -21 -110 -21
-105 19 -130 70 -43 53 -102 -39 -140 -51 -22 -57 -27 -77 -79 -35 -89 -117
-250 -166 -326 -142 -220 -378 -450 -576 -564 -30 -17 -60 -38 -67 -46 -7 -8
-34 -18 -61 -21 -27 -4 -49 -11 -49 -15 0 -10 10 -8 125 19 171 41 467 244
691 473 519 533 731 1264 582 2013 -41 208 -145 474 -265 680 -184 314 -491
612 -823 801 -251 143 -563 242 -862 274 -90 10 -339 12 -433 4z"/>
<path d="M2004 2726 c-99 -43 -98 -200 1 -242 45 -18 69 -18 112 3 97 46 96
198 -2 239 -42 17 -71 17 -111 0z"/>
<path d="M3989 2717 c-73 -49 -87 -132 -33 -197 72 -85 209 -45 230 67 13 69
-59 153 -131 153 -18 0 -47 -10 -66 -23z"/>
<path d="M2442 1624 c-29 -20 -52 -65 -52 -101 0 -64 56 -118 200 -192 306
-159 639 -157 965 6 174 88 228 164 177 248 -33 53 -60 61 -133 36 -214 -70
-396 -95 -637 -88 -192 5 -312 28 -429 82 -65 30 -62 29 -91 9z m1256 -22 c60
-56 49 -125 -28 -181 -95 -68 -295 -154 -411 -175 l-36 -6 -37 128 c-20 70
-36 132 -36 138 0 10 168 36 182 28 3 -2 33 -47 65 -99 32 -52 62 -95 66 -95
9 0 11 -3 -55 102 -26 43 -49 82 -50 88 -2 6 56 26 130 45 73 19 141 39 150
45 24 14 27 13 60 -18z m-1160 -6 c31 -13 77 -29 102 -35 25 -7 51 -14 57 -16
8 -3 -13 -40 -54 -99 l-67 -95 -40 24 c-131 78 -164 145 -105 218 25 33 35 33
107 3z m292 -73 c33 -3 60 -10 60 -15 0 -19 -53 -243 -59 -250 -7 -8 -147 38
-204 68 l-37 20 67 97 c58 85 70 97 90 92 12 -3 50 -8 83 -12z m340 -148 c33
-115 35 -131 21 -137 -40 -17 -318 -5 -337 15 -5 5 43 232 53 250 3 4 54 6
115 5 l111 -3 37 -130z"/>
<path d="M3088 553 c-17 -37 -17 -38 1 -16 l19 22 12 -29 c7 -17 17 -33 22
-36 5 -3 1 11 -10 32 -11 22 -21 45 -23 52 -3 7 -12 -4 -21 -25z"/>
<path d="M3151 469 c-1 -24 24 -41 51 -36 22 4 21 4 -3 6 -16 0 -30 9 -37 24
-8 16 -11 17 -11 6z"/>
<path d="M3035 450 c-3 -5 -17 -10 -31 -10 -14 0 -22 -4 -19 -10 3 -5 10 -10
14 -10 11 0 59 39 49 40 -4 0 -10 -4 -13 -10z"/>
<path d="M2898 423 c-16 -4 -15 -7 6 -30 23 -24 25 -25 47 -9 13 9 19 16 13
16 -5 0 -15 -5 -20 -10 -8 -8 -15 -6 -24 4 -10 13 -9 17 4 22 9 3 23 3 32 0 8
-3 12 -2 9 4 -6 10 -36 11 -67 3z"/>
<path d="M3243 423 c9 -2 25 -2 35 0 9 3 1 5 -18 5 -19 0 -27 -2 -17 -5z"/>
<path d="M3258 367 c-48 -51 -59 -84 -39 -116 6 -10 8 -1 4 25 -5 37 -2 42 50
92 31 28 50 51 44 51 -7 -1 -33 -24 -59 -52z"/>
<path d="M2945 350 c3 -5 16 -15 28 -21 22 -12 22 -12 3 10 -19 21 -43 30 -31
11z"/>
<path d="M2974 208 c1 -21 -3 -39 -9 -41 -5 -3 -8 -6 -5 -9 3 -2 38 13 79 34
80 41 77 53 -4 14 l-50 -25 -7 32 c-7 31 -7 31 -4 -5z"/>
<path d="M3120 221 c0 -4 11 -13 25 -19 14 -6 25 -8 25 -4 0 4 -11 12 -25 19
-14 6 -25 8 -25 4z"/>
<path d="M3186 193 c-5 -5 46 -43 58 -43 2 0 2 9 -1 20 -3 12 -8 19 -11 16 -2
-3 -12 -1 -22 4 -10 5 -20 6 -24 3z"/>
</g>
</svg>
